<?xml version="1.0" encoding="utf-8"?>
<!-- Generator: Adobe Illustrator 21.0.0, SVG Export Plug-In . SVG Version: 6.00 Build 0)  -->
<svg version="1.1" id="Warstwa_1" xmlns="http://www.w3.org/2000/svg" xmlns:xlink="http://www.w3.org/1999/xlink" x="0px" y="0px"
	 viewBox="0 0 465.9 88.7" style="enable-background:new 0 0 465.9 88.7;" xml:space="preserve">
<style type="text/css">
	.st0{fill:#42A5F5;}
	.st1{fill:#2196F3;}
	.st2{fill:#FFFFFF;}
</style>
<title>Zasób 1</title>
<g>
	<g>
		<path class="st0" d="M68.1,0c23.2,0,42,18.8,42,42s-18.8,42-42,42H43c22.8-0.4,38.2-20.5,38.2-43.2S58.9,1.2,36.7,0.1L36,0H68.1z
			 M33.8,84L33.8,84z"/>
	</g>
	<g>
		<path class="st1" d="M42,0h1.4h0.7c23.2,1.2,41,20.9,39.8,44.1c-1.2,23.2-20.9,41-44.1,39.8C17.5,82.8,0,64.3,0,42V0H42z M42,32.1
			c-5.5,0-10,4.5-10,10s4.5,10,10,10s10-4.5,10-10S47.5,32.1,42,32.1z"/>
	</g>
	<g>
		<path class="st1" d="M163.7,29c5.5,0,9.3,1.6,11.5,4.7c2.2,3.1,3.3,8.6,3.3,16.4c0,7.8-1.4,13.3-4.1,16.5
			c-2.7,3.2-7.8,4.8-15.1,4.8c-2.3,0-6.1-0.2-11.3-0.7l-2.3-0.2V12h6v19.8C155.8,29.9,159.8,29,163.7,29z M159.2,65.9
			c5.3,0,8.8-1.2,10.6-3.6c1.7-2.4,2.6-6.5,2.6-12.3c0-5.8-0.7-9.8-2-12.1c-1.4-2.3-3.8-3.5-7.3-3.5c-3.2,0-6.4,0.6-9.7,1.8
			l-1.6,0.6v28.7C155.3,65.8,157.8,65.9,159.2,65.9z"/>
		<path class="st0" d="M207.9,29c1.8,0,4.8,0.3,9.1,1l2,0.2l-0.2,5c-4.3-0.5-7.6-0.7-9.6-0.7c-4.6,0-7.8,1.1-9.4,3.3
			C198,40,197.2,44,197.2,50c0,6,0.8,10.1,2.3,12.4c1.5,2.3,4.8,3.5,9.7,3.5l9.6-0.7l0.2,5.1c-5.1,0.8-8.8,1.1-11.3,1.1
			c-6.4,0-10.7-1.6-13.2-4.9c-2.4-3.3-3.6-8.8-3.6-16.5c0-7.7,1.3-13.2,3.9-16.3C197.4,30.6,201.8,29,207.9,29z"/>
		<path class="st2" d="M228.9,29.8h6.1l8.2,35.5h1.3l9.7-34.6h6.4l9.7,34.6h1.4l8.2-35.5h6.1l-9.7,40.8h-10.2l-8.6-31.9l-8.6,31.9
			h-10.2L228.9,29.8z"/>
		<path class="st2" d="M325.8,65.5l2.4-0.2l0.2,4.8c-6.2,0.9-11.5,1.3-15.9,1.3c-5.9,0-10-1.7-12.5-5.1c-2.4-3.4-3.7-8.7-3.7-15.9
			c0-14.3,5.7-21.4,17-21.4c5.5,0,9.6,1.5,12.3,4.6c2.7,3.1,4.1,7.9,4.1,14.5l-0.3,4.6h-26.9c0,4.5,0.8,7.9,2.4,10
			c1.6,2.2,4.5,3.3,8.5,3.3C317.5,66,321.6,65.8,325.8,65.5z M323.6,47.8c0-5-0.8-8.5-2.4-10.6c-1.6-2.1-4.2-3.1-7.8-3.1
			s-6.3,1.1-8.2,3.3c-1.8,2.2-2.8,5.7-2.8,10.4H323.6z"/>
		<path class="st2" d="M361.3,29c5.5,0,9.3,1.6,11.5,4.7c2.2,3.1,3.3,8.6,3.3,16.4c0,7.8-1.4,13.3-4.1,16.5s-7.8,4.8-15.1,4.8
			c-2.3,0-6.1-0.2-11.3-0.7l-2.3-0.2V12h6v19.8C353.4,29.9,357.4,29,361.3,29z M356.8,65.9c5.3,0,8.8-1.2,10.6-3.6
			c1.7-2.4,2.6-6.5,2.6-12.3c0-5.8-0.7-9.8-2-12.1c-1.4-2.3-3.8-3.5-7.3-3.5c-3.2,0-6.4,0.6-9.7,1.8l-1.6,0.6v28.7
			C352.8,65.8,355.3,65.9,356.8,65.9z"/>
		<path class="st2" d="M412.2,88.7V29.8h6v2.9c4.1-2.5,8.2-3.8,12.2-3.8c5.2,0,8.9,1.6,11.2,4.9c2.3,3.3,3.5,8.7,3.5,16.3
			c0,7.6-1.4,13-4.1,16.3c-2.7,3.3-7.3,4.9-13.7,4.9c-3.3,0-6.4-0.3-9.1-0.9v18.2H412.2z M429.6,34.4c-1.6,0-3.4,0.3-5.3,0.8
			c-1.9,0.5-3.4,1.1-4.4,1.6l-1.5,0.8v27.5c3.9,0.6,6.8,0.9,8.8,0.9c4.4,0,7.5-1.3,9.3-3.8c1.8-2.5,2.6-6.6,2.6-12.2
			c0-5.7-0.8-9.7-2.4-12.1C435.1,35.6,432.7,34.4,429.6,34.4z"/>
		<path class="st2" d="M459.8,70.6V12h6.1v58.5H459.8z"/>
	</g>
	<g>
		<circle class="st1" cx="394.1" cy="66.9" r="4.5"/>
	</g>
</g>
</svg>
